if (_typeface_js && _typeface_js.loadFace) _typeface_js.loadFace({"glyphs":{"S":{"x_min":0,"x_max":833.40625,"ha":972,"o":"m 0 833 l 138 833 l 138 972 l 833 972 l 833 833 l 277 833 l 277 555 l 694 555 l 694 416 l 833 416 l 833 138 l 694 138 l 694 0 l 0 0 l 0 138 l 555 138 l 555 416 l 138 416 l 138 555 l 0 555 l 0 833 "},"/":{"x_min":0,"x_max":972.296875,"ha":1111,"o":"m 0 138 l 138 138 l 138 277 l 277 277 l 277 416 l 416 416 l 416 555 l 555 555 l 555 694 l 694 694 l 694 833 l 833 833 l 833 972 l 972 972 l 972 833 l 833 833 l 833 694 l 694 694 l 694 555 l 555 555 l 555 416 l 416 416 l 416 277 l 277 277 l 277 138 l 138 138 l 138 0 l 0 0 l 0 138 "},"K":{"x_min":0,"x_max":833.40625,"ha":972,"o":"m 0 972 l 277 972 l 277 555 l 555 555 l 555 694 l 694 694 l 694 972 l 833 972 l 833 694 l 694 694 l 694 555 l 555 555 l 555 416 l 694 416 l 694 277 l 833 277 l 833 0 l 694 0 l 694 277 l 555 277 l 555 416 l 277 416 l 277 0 l 0 0 l 0 972 "},"7":{"x_min":0,"x_max":833.40625,"ha":972,"o":"m 0 972 l 833 972 l 833 694 l 694 694 l 694 555 l 555 555 l 555 0 l 277 0 l 277 555 l 416 555 l 416 694 l 555 694 l 555 833 l 0 833 l 0 972 "},"d":{"x_min":0,"x_max":694.5,"ha":833,"o":"m 0 555 l 138 555 l 138 694 l 416 694 l 416 972 l 694 972 l 694 0 l 138 0 l 138 138 l 0 138 l 0 555 m 138 138 l 416 138 l 416 555 l 138 555 l 138 138 "},",":{"x_min":0,"x_max":277.796875,"ha":417,"o":"m 0 277 l 277 277 l 277 -138 l 138 -138 l 138 -277 l 0 -277 l 0 -138 l 138 -138 l 138 138 l 0 138 l 0 277 "},"Y":{"x_min":0,"x_max":833.40625,"ha":972,"o":"m 0 972 l 277 972 l 277 694 l 416 694 l 416 555 l 555 555 l 555 694 l 694 694 l 694 972 l 833 972 l 833 694 l 694 694 l 694 555 l 555 555 l 555 0 l 277 0 l 277 555 l 138 555 l 138 694 l 0 694 l 0 972 "},"E":{"x_min":0,"x_max":833.40625,"ha":972,"o":"m 0 972 l 833 972 l 833 833 l 277 833 l 277 555 l 694 555 l 694 416 l 277 416 l 277 138 l 833 138 l 833 0 l 0 0 l 0 972 "},"y":{"x_min":0,"x_max":694.5,"ha":833,"o":"m 0 694 l 138 694 l 138 138 l 416 138 l 416 694 l 694 694 l 694 -138 l 555 -138 l 555 -277 l 138 -277 l 138 -138 l 416 -138 l 416 0 l 138 0 l 138 138 l 0 138 l 0 694 "},"\"":{"x_min":0,"x_max":416.703125,"ha":556,"o":"m 0 972 l 138 972 l 138 555 l 0 555 l 0 972 m 277 972 l 416 972 l 416 555 l 277 555 l 277 972 "},"‹":{"x_min":0,"x_max":416.703125,"ha":556,"o":"m 0 555 l 138 555 l 138 694 l 277 694 l 277 833 l 416 833 l 416 694 l 277 694 l 277 555 l 138 555 l 138 416 l 277 416 l 277 277 l 416 277 l 416 138 l 277 138 l 277 277 l 138 277 l 138 416 l 0 416 l 0 555 "},"„":{"x_min":0,"x_max":694.5,"ha":833,"o":"m 0 277 l 277 277 l 277 -138 l 138 -138 l 138 -277 l 0 -277 l 0 -138 l 138 -138 l 138 138 l 0 138 l 0 277 m 416 277 l 694 277 l 694 -138 l 555 -138 l 555 -277 l 416 -277 l 416 -138 l 555 -138 l 555 138 l 416 138 l 416 277 "},"g":{"x_min":0,"x_max":694.5,"ha":833,"o":"m 0 555 l 138 555 l 138 694 l 694 694 l 694 -138 l 555 -138 l 555 -277 l 138 -277 l 138 -138 l 416 -138 l 416 0 l 138 0 l 138 138 l 0 138 l 0 555 m 138 138 l 416 138 l 416 555 l 138 555 l 138 138 "},"–":{"x_min":0,"x_max":694.5,"ha":833,"o":"m 0 555 l 694 555 l 694 416 l 0 416 l 0 555 "},"ƒ":{"x_min":0,"x_max":694.5,"ha":833,"o":"m 0 694 l 138 694 l 138 833 l 277 833 l 277 972 l 694 972 l 694 833 l 416 833 l 416 694 l 694 694 l 694 555 l 416 555 l 416 -138 l 277 -138 l 277 -277 l 0 -277 l 0 -138 l 138 -138 l 138 555 l 0 555 l 0 694 "},"e":{"x_min":0,"x_max":694.5,"ha":833,"o":"m 0 555 l 138 555 l 138 694 l 555 694 l 555 555 l 694 555 l 694 277 l 277 277 l 277 138 l 694 138 l 694 0 l 138 0 l 138 138 l 0 138 l 0 555 m 277 416 l 555 416 l 555 555 l 277 555 l 277 416 "},"J":{"x_min":0,"x_max":833.40625,"ha":972,"o":"m 0 972 l 833 972 l 833 138 l 694 138 l 694 0 l 138 0 l 138 138 l 0 138 l 0 416 l 138 416 l 138 138 l 555 138 l 555 833 l 0 833 l 0 972 "},"|":{"x_min":0,"x_max":277.796875,"ha":417,"o":"m 0 972 l 277 972 l 277 0 l 0 0 l 0 972 "},"^":{"x_min":0,"x_max":694.5,"ha":833,"o":"m 0 694 l 138 694 l 138 833 l 277 833 l 277 972 l 416 972 l 416 833 l 555 833 l 555 694 l 694 694 l 694 555 l 555 555 l 555 694 l 416 694 l 416 833 l 277 833 l 277 694 l 138 694 l 138 555 l 0 555 l 0 694 "},"q":{"x_min":0,"x_max":694.5,"ha":833,"o":"m 0 555 l 138 555 l 138 694 l 694 694 l 694 -277 l 416 -277 l 416 0 l 138 0 l 138 138 l 0 138 l 0 555 m 138 138 l 416 138 l 416 555 l 138 555 l 138 138 "},"b":{"x_min":0,"x_max":694.5,"ha":833,"o":"m 0 972 l 277 972 l 277 694 l 555 694 l 555 555 l 694 555 l 694 138 l 555 138 l 555 0 l 0 0 l 0 972 m 277 138 l 555 138 l 555 555 l 277 555 l 277 138 "},"D":{"x_min":0,"x_max":833.40625,"ha":972,"o":"m 0 972 l 694 972 l 694 833 l 833 833 l 833 138 l 694 138 l 694 0 l 0 0 l 0 972 m 694 833 l 277 833 l 277 138 l 694 138 l 694 833 "},"z":{"x_min":0,"x_max":694.5,"ha":833,"o":"m 0 694 l 694 694 l 694 416 l 555 416 l 555 277 l 277 277 l 277 138 l 694 138 l 694 0 l 0 0 l 0 277 l 138 277 l 138 416 l 416 416 l 416 555 l 0 555 l 0 694 "},"w":{"x_min":0,"x_max":833.40625,"ha":972,"o":"m 0 694 l 138 694 l 138 138 l 277 138 l 277 555 l 416 555 l 416 138 l 555 138 l 555 694 l 833 694 l 833 138 l 694 138 l 694 0 l 416 0 l 416 138 l 277 138 l 277 0 l 138 0 l 138 138 l 0 138 l 0 694 "},"$":{"x_min":0,"x_max":972.296875,"ha":1111,"o":"m 0 833 l 138 833 l 138 972 l 416 972 l 416 1111 l 555 1111 l 555 972 l 972 972 l 972 833 l 555 833 l 555 555 l 833 555 l 833 416 l 972 416 l 972 138 l 833 138 l 833 0 l 555 0 l 555 -138 l 416 -138 l 416 0 l 0 0 l 0 138 l 416 138 l 416 416 l 138 416 l 138 555 l 0 555 l 0 833 m 416 833 l 277 833 l 277 555 l 416 555 l 416 833 m 694 416 l 555 416 l 555 138 l 694 138 l 694 416 "},"\\":{"x_min":0,"x_max":972.296875,"ha":1111,"o":"m 0 972 l 138 972 l 138 833 l 277 833 l 277 694 l 416 694 l 416 555 l 555 555 l 555 416 l 694 416 l 694 277 l 833 277 l 833 138 l 972 138 l 972 0 l 833 0 l 833 138 l 694 138 l 694 277 l 555 277 l 555 416 l 416 416 l 416 555 l 277 555 l 277 694 l 138 694 l 138 833 l 0 833 l 0 972 "},"’":{"x_min":0,"x_max":277.796875,"ha":417,"o":"m 0 972 l 277 972 l 277 555 l 138 555 l 138 416 l 0 416 l 0 555 l 138 555 l 138 833 l 0 833 l 0 972 "},"~":{"x_min":0,"x_max":833.40625,"ha":972,"o":"m 0 555 l 138 555 l 138 694 l 416 694 l 416 555 l 694 555 l 694 833 l 833 833 l 833 555 l 694 555 l 694 416 l 416 416 l 416 555 l 138 555 l 138 277 l 0 277 l 0 555 "},"-":{"x_min":0,"x_max":694.5,"ha":833,"o":"m 0 555 l 694 555 l 694 416 l 0 416 l 0 555 "},"Q":{"x_min":0,"x_max":833.40625,"ha":972,"o":"m 0 833 l 138 833 l 138 972 l 694 972 l 694 833 l 833 833 l 833 0 l 138 0 l 138 138 l 0 138 l 0 833 m 277 138 l 555 138 l 555 277 l 694 277 l 694 833 l 277 833 l 277 138 "},"M":{"x_min":0,"x_max":833.40625,"ha":972,"o":"m 0 972 l 138 972 l 138 694 l 277 694 l 277 555 l 416 555 l 416 694 l 555 694 l 555 972 l 833 972 l 833 0 l 555 0 l 555 555 l 416 555 l 416 277 l 277 277 l 277 555 l 138 555 l 138 0 l 0 0 l 0 972 "},"C":{"x_min":0,"x_max":833.40625,"ha":972,"o":"m 0 833 l 138 833 l 138 972 l 694 972 l 694 833 l 833 833 l 833 694 l 694 694 l 694 833 l 277 833 l 277 138 l 694 138 l 694 277 l 833 277 l 833 138 l 694 138 l 694 0 l 138 0 l 138 138 l 0 138 l 0 833 "},"[":{"x_min":0,"x_max":555.59375,"ha":695,"o":"m 0 972 l 555 972 l 555 833 l 277 833 l 277 138 l 555 138 l 555 0 l 0 0 l 0 972 "},"L":{"x_min":0,"x_max":833.40625,"ha":972,"o":"m 0 972 l 277 972 l 277 138 l 833 138 l 833 0 l 0 0 l 0 972 "},"!":{"x_min":0,"x_max":277.796875,"ha":417,"o":"m 0 972 l 277 972 l 277 277 l 0 277 l 0 972 m 0 138 l 277 138 l 277 0 l 0 0 l 0 138 "}," ":{"x_min":0,"x_max":0,"ha":972},"{":{"x_min":0,"x_max":555.59375,"ha":695,"o":"m 0 555 l 138 555 l 138 972 l 555 972 l 555 833 l 416 833 l 416 555 l 277 555 l 277 416 l 416 416 l 416 138 l 555 138 l 555 0 l 138 0 l 138 416 l 0 416 l 0 555 "},"X":{"x_min":0,"x_max":833.40625,"ha":972,"o":"m 0 972 l 277 972 l 277 694 l 416 694 l 416 555 l 555 555 l 555 694 l 694 694 l 694 972 l 833 972 l 833 694 l 694 694 l 694 555 l 555 555 l 555 416 l 694 416 l 694 277 l 833 277 l 833 0 l 555 0 l 555 277 l 416 277 l 416 416 l 277 416 l 277 277 l 138 277 l 138 0 l 0 0 l 0 277 l 138 277 l 138 416 l 277 416 l 277 555 l 138 555 l 138 694 l 0 694 l 0 972 "},"P":{"x_min":0,"x_max":833.40625,"ha":972,"o":"m 0 972 l 694 972 l 694 833 l 833 833 l 833 416 l 694 416 l 694 277 l 277 277 l 277 0 l 0 0 l 0 972 m 277 416 l 694 416 l 694 833 l 277 833 l 277 416 "},"%":{"x_min":0,"x_max":972.296875,"ha":1111,"o":"m 0 138 l 138 138 l 138 277 l 277 277 l 277 416 l 416 416 l 416 555 l 555 555 l 555 694 l 694 694 l 694 833 l 833 833 l 833 972 l 972 972 l 972 833 l 833 833 l 833 694 l 694 694 l 694 555 l 555 555 l 555 416 l 416 416 l 416 277 l 277 277 l 277 138 l 138 138 l 138 0 l 0 0 l 0 138 m 0 972 l 277 972 l 277 555 l 0 555 l 0 972 m 694 416 l 972 416 l 972 0 l 694 0 l 694 416 "},"#":{"x_min":0,"x_max":833.40625,"ha":972,"o":"m 0 694 l 138 694 l 138 972 l 277 972 l 277 694 l 416 694 l 416 972 l 694 972 l 694 694 l 833 694 l 833 555 l 694 555 l 694 416 l 833 416 l 833 277 l 694 277 l 694 0 l 416 0 l 416 277 l 277 277 l 277 0 l 138 0 l 138 277 l 0 277 l 0 416 l 138 416 l 138 555 l 0 555 l 0 694 m 277 416 l 416 416 l 416 555 l 277 555 l 277 416 "},"_":{"x_min":0,"x_max":833.40625,"ha":972,"o":"m 0 138 l 833 138 l 833 0 l 0 0 l 0 138 "},"+":{"x_min":0,"x_max":694.5,"ha":833,"o":"m 0 555 l 277 555 l 277 833 l 416 833 l 416 555 l 694 555 l 694 416 l 416 416 l 416 138 l 277 138 l 277 416 l 0 416 l 0 555 "},"‚":{"x_min":0,"x_max":277.796875,"ha":417,"o":"m 0 277 l 277 277 l 277 -138 l 138 -138 l 138 -277 l 0 -277 l 0 -138 l 138 -138 l 138 138 l 0 138 l 0 277 "},")":{"x_min":0,"x_max":555.59375,"ha":695,"o":"m 0 972 l 416 972 l 416 833 l 555 833 l 555 138 l 416 138 l 416 0 l 0 0 l 0 138 l 277 138 l 277 833 l 0 833 l 0 972 "},"'":{"x_min":0,"x_max":138.90625,"ha":278,"o":"m 0 972 l 138 972 l 138 555 l 0 555 l 0 972 "},"}":{"x_min":0,"x_max":555.59375,"ha":695,"o":"m 0 972 l 416 972 l 416 555 l 555 555 l 555 416 l 416 416 l 416 0 l 0 0 l 0 138 l 138 138 l 138 416 l 277 416 l 277 555 l 138 555 l 138 833 l 0 833 l 0 972 "},"‰":{"x_min":0,"x_max":972.296875,"ha":1111,"o":"m 0 138 l 138 138 l 138 277 l 277 277 l 277 416 l 416 416 l 416 555 l 555 555 l 555 694 l 694 694 l 694 833 l 833 833 l 833 972 l 972 972 l 972 833 l 833 833 l 833 694 l 694 694 l 694 555 l 555 555 l 555 416 l 694 416 l 694 0 l 555 0 l 555 416 l 416 416 l 416 277 l 277 277 l 277 138 l 138 138 l 138 0 l 0 0 l 0 138 m 0 972 l 138 972 l 138 555 l 0 555 l 0 972 m 833 416 l 972 416 l 972 0 l 833 0 l 833 416 "},"a":{"x_min":0,"x_max":694.5,"ha":833,"o":"m 138 694 l 555 694 l 555 555 l 694 555 l 694 0 l 138 0 l 138 138 l 0 138 l 0 277 l 138 277 l 138 416 l 416 416 l 416 555 l 138 555 l 138 694 m 138 138 l 416 138 l 416 277 l 138 277 l 138 138 "},"T":{"x_min":0,"x_max":833.40625,"ha":972,"o":"m 0 972 l 833 972 l 833 833 l 555 833 l 555 0 l 277 0 l 277 833 l 0 833 l 0 972 "},"—":{"x_min":0,"x_max":833.40625,"ha":972,"o":"m 0 555 l 833 555 l 833 416 l 0 416 l 0 555 "},"=":{"x_min":0,"x_max":694.5,"ha":833,"o":"m 0 694 l 694 694 l 694 555 l 0 555 l 0 694 m 0 416 l 694 416 l 694 277 l 0 277 l 0 416 "},"N":{"x_min":0,"x_max":833.40625,"ha":972,"o":"m 0 972 l 277 972 l 277 694 l 416 694 l 416 555 l 555 555 l 555 416 l 694 416 l 694 972 l 833 972 l 833 0 l 694 0 l 694 277 l 555 277 l 555 416 l 416 416 l 416 555 l 277 555 l 277 0 l 0 0 l 0 972 "},"2":{"x_min":0,"x_max":833.40625,"ha":972,"o":"m 0 833 l 138 833 l 138 972 l 694 972 l 694 833 l 833 833 l 833 555 l 694 555 l 694 416 l 416 416 l 416 277 l 277 277 l 277 138 l 833 138 l 833 0 l 0 0 l 0 277 l 138 277 l 138 416 l 277 416 l 277 555 l 555 555 l 555 833 l 138 833 l 138 694 l 0 694 l 0 833 "},"j":{"x_min":0,"x_max":555.59375,"ha":695,"o":"m 0 -138 l 277 -138 l 277 555 l 0 555 l 0 694 l 555 694 l 555 -138 l 416 -138 l 416 -277 l 0 -277 l 0 -138 m 138 972 l 416 972 l 416 833 l 138 833 l 138 972 "},"Z":{"x_min":0,"x_max":833.40625,"ha":972,"o":"m 0 972 l 833 972 l 833 694 l 694 694 l 694 555 l 555 555 l 555 416 l 416 416 l 416 277 l 277 277 l 277 138 l 833 138 l 833 0 l 0 0 l 0 277 l 138 277 l 138 416 l 277 416 l 277 555 l 416 555 l 416 694 l 555 694 l 555 833 l 0 833 l 0 972 "},"u":{"x_min":0,"x_max":694.5,"ha":833,"o":"m 0 694 l 138 694 l 138 138 l 416 138 l 416 694 l 694 694 l 694 138 l 555 138 l 555 0 l 138 0 l 138 138 l 0 138 l 0 694 "},"1":{"x_min":0,"x_max":833.40625,"ha":972,"o":"m 0 694 l 138 694 l 138 833 l 277 833 l 277 972 l 555 972 l 555 138 l 833 138 l 833 0 l 0 0 l 0 138 l 277 138 l 277 694 l 138 694 l 138 555 l 0 555 l 0 694 "},"›":{"x_min":0,"x_max":416.703125,"ha":556,"o":"m 0 833 l 138 833 l 138 694 l 277 694 l 277 555 l 416 555 l 416 416 l 277 416 l 277 277 l 138 277 l 138 138 l 0 138 l 0 277 l 138 277 l 138 416 l 277 416 l 277 555 l 138 555 l 138 694 l 0 694 l 0 833 "},"k":{"x_min":0,"x_max":694.5,"ha":833,"o":"m 0 972 l 277 972 l 277 416 l 416 416 l 416 555 l 555 555 l 555 694 l 694 694 l 694 555 l 555 555 l 555 416 l 416 416 l 416 277 l 555 277 l 555 138 l 694 138 l 694 0 l 555 0 l 555 138 l 416 138 l 416 277 l 277 277 l 277 0 l 0 0 l 0 972 "},"€":{"x_min":0,"x_max":972.296875,"ha":1111,"o":"m 0 694 l 138 694 l 138 833 l 277 833 l 277 972 l 972 972 l 972 833 l 416 833 l 416 694 l 833 694 l 833 555 l 416 555 l 416 416 l 833 416 l 833 277 l 416 277 l 416 138 l 972 138 l 972 0 l 277 0 l 277 138 l 138 138 l 138 277 l 0 277 l 0 416 l 138 416 l 138 555 l 0 555 l 0 694 "},"<":{"x_min":0,"x_max":416.703125,"ha":556,"o":"m 0 555 l 138 555 l 138 694 l 277 694 l 277 833 l 416 833 l 416 694 l 277 694 l 277 555 l 138 555 l 138 416 l 277 416 l 277 277 l 416 277 l 416 138 l 277 138 l 277 277 l 138 277 l 138 416 l 0 416 l 0 555 "},"t":{"x_min":0,"x_max":694.5,"ha":833,"o":"m 0 694 l 138 694 l 138 972 l 416 972 l 416 694 l 694 694 l 694 555 l 416 555 l 416 138 l 694 138 l 694 0 l 277 0 l 277 138 l 138 138 l 138 555 l 0 555 l 0 694 "},"W":{"x_min":0,"x_max":833.40625,"ha":972,"o":"m 0 972 l 138 972 l 138 138 l 277 138 l 277 555 l 416 555 l 416 138 l 555 138 l 555 972 l 833 972 l 833 138 l 694 138 l 694 0 l 138 0 l 138 138 l 0 138 l 0 972 "},"v":{"x_min":0,"x_max":694.5,"ha":833,"o":"m 0 694 l 138 694 l 138 277 l 277 277 l 277 138 l 416 138 l 416 694 l 694 694 l 694 277 l 555 277 l 555 138 l 416 138 l 416 0 l 277 0 l 277 138 l 138 138 l 138 277 l 0 277 l 0 694 "},">":{"x_min":0,"x_max":416.703125,"ha":556,"o":"m 0 833 l 138 833 l 138 694 l 277 694 l 277 555 l 416 555 l 416 416 l 277 416 l 277 277 l 138 277 l 138 138 l 0 138 l 0 277 l 138 277 l 138 416 l 277 416 l 277 555 l 138 555 l 138 694 l 0 694 l 0 833 "},"s":{"x_min":0,"x_max":694.5,"ha":833,"o":"m 0 555 l 138 555 l 138 694 l 694 694 l 694 555 l 277 555 l 277 416 l 694 416 l 694 138 l 555 138 l 555 0 l 0 0 l 0 138 l 416 138 l 416 277 l 0 277 l 0 555 "},"B":{"x_min":0,"x_max":833.40625,"ha":972,"o":"m 0 972 l 694 972 l 694 833 l 833 833 l 833 555 l 694 555 l 694 416 l 833 416 l 833 138 l 694 138 l 694 0 l 0 0 l 0 972 m 694 416 l 277 416 l 277 138 l 694 138 l 694 416 m 277 555 l 694 555 l 694 833 l 277 833 l 277 555 "},"…":{"x_min":0,"x_max":694.5,"ha":833,"o":"m 0 138 l 138 138 l 138 0 l 0 0 l 0 138 m 555 138 l 694 138 l 694 0 l 555 0 l 555 138 m 277 138 l 416 138 l 416 0 l 277 0 l 277 138 "},"?":{"x_min":0,"x_max":833.40625,"ha":972,"o":"m 0 833 l 138 833 l 138 972 l 694 972 l 694 833 l 833 833 l 833 555 l 694 555 l 694 416 l 416 416 l 416 277 l 277 277 l 277 555 l 555 555 l 555 833 l 138 833 l 138 694 l 0 694 l 0 833 m 277 138 l 416 138 l 416 0 l 277 0 l 277 138 "},"H":{"x_min":0,"x_max":833.40625,"ha":972,"o":"m 0 972 l 138 972 l 138 555 l 555 555 l 555 972 l 833 972 l 833 0 l 555 0 l 555 416 l 138 416 l 138 0 l 0 0 l 0 972 "},"c":{"x_min":0,"x_max":694.5,"ha":833,"o":"m 0 555 l 138 555 l 138 694 l 694 694 l 694 555 l 277 555 l 277 138 l 694 138 l 694 0 l 138 0 l 138 138 l 0 138 l 0 555 "},"&":{"x_min":0,"x_max":972.296875,"ha":1111,"o":"m 0 833 l 138 833 l 138 972 l 555 972 l 555 833 l 694 833 l 694 555 l 972 555 l 972 416 l 694 416 l 694 138 l 972 138 l 972 0 l 694 0 l 694 138 l 555 138 l 555 0 l 138 0 l 138 138 l 0 138 l 0 416 l 138 416 l 138 555 l 0 555 l 0 833 m 277 555 l 555 555 l 555 833 l 277 833 l 277 555 m 277 138 l 555 138 l 555 416 l 277 416 l 277 138 m 555 416 l 694 416 l 694 555 l 555 555 l 555 416 "},"I":{"x_min":0,"x_max":833.40625,"ha":972,"o":"m 0 972 l 833 972 l 833 833 l 555 833 l 555 138 l 833 138 l 833 0 l 0 0 l 0 138 l 277 138 l 277 833 l 0 833 l 0 972 "},"•":{"x_min":0,"x_max":416.703125,"ha":556,"o":"m 0 694 l 416 694 l 416 277 l 0 277 l 0 694 "},"G":{"x_min":0,"x_max":833.40625,"ha":972,"o":"m 0 833 l 138 833 l 138 972 l 694 972 l 694 833 l 833 833 l 833 694 l 694 694 l 694 833 l 277 833 l 277 138 l 694 138 l 694 416 l 555 416 l 555 555 l 833 555 l 833 138 l 694 138 l 694 0 l 138 0 l 138 138 l 0 138 l 0 833 "},"(":{"x_min":0,"x_max":555.59375,"ha":695,"o":"m 0 833 l 138 833 l 138 972 l 555 972 l 555 833 l 277 833 l 277 138 l 555 138 l 555 0 l 138 0 l 138 138 l 0 138 l 0 833 "},"`":{"x_min":0,"x_max":416.703125,"ha":556,"o":"m 0 972 l 138 972 l 138 833 l 277 833 l 277 694 l 416 694 l 416 555 l 277 555 l 277 694 l 138 694 l 138 833 l 0 833 l 0 972 "},"U":{"x_min":0,"x_max":833.40625,"ha":972,"o":"m 0 972 l 138 972 l 138 138 l 555 138 l 555 972 l 833 972 l 833 138 l 694 138 l 694 0 l 138 0 l 138 138 l 0 138 l 0 972 "},"F":{"x_min":0,"x_max":833.40625,"ha":972,"o":"m 0 972 l 833 972 l 833 833 l 277 833 l 277 555 l 694 555 l 694 416 l 277 416 l 277 0 l 0 0 l 0 972 "},"r":{"x_min":0,"x_max":694.5,"ha":833,"o":"m 0 694 l 555 694 l 555 555 l 694 555 l 694 416 l 555 416 l 555 555 l 277 555 l 277 0 l 0 0 l 0 694 "},":":{"x_min":0,"x_max":138.90625,"ha":278,"o":"m 0 694 l 138 694 l 138 555 l 0 555 l 0 694 m 0 416 l 138 416 l 138 277 l 0 277 l 0 416 "},"x":{"x_min":0,"x_max":833.40625,"ha":972,"o":"m 0 694 l 277 694 l 277 555 l 555 555 l 555 694 l 833 694 l 833 555 l 694 555 l 694 416 l 555 416 l 555 277 l 694 277 l 694 138 l 833 138 l 833 0 l 555 0 l 555 138 l 277 138 l 277 0 l 0 0 l 0 138 l 138 138 l 138 277 l 277 277 l 277 416 l 138 416 l 138 555 l 0 555 l 0 694 "},"*":{"x_min":0,"x_max":694.5,"ha":833,"o":"m 138 833 l 277 833 l 277 694 l 416 694 l 416 833 l 555 833 l 555 694 l 416 694 l 416 555 l 694 555 l 694 416 l 416 416 l 416 277 l 555 277 l 555 138 l 416 138 l 416 277 l 277 277 l 277 138 l 138 138 l 138 277 l 277 277 l 277 416 l 0 416 l 0 555 l 277 555 l 277 694 l 138 694 l 138 833 "},"†":{"x_min":0,"x_max":555.59375,"ha":695,"o":"m 0 694 l 138 694 l 138 972 l 416 972 l 416 694 l 555 694 l 555 555 l 416 555 l 416 0 l 138 0 l 138 555 l 0 555 l 0 694 "},"V":{"x_min":0,"x_max":833.40625,"ha":972,"o":"m 0 972 l 138 972 l 138 277 l 277 277 l 277 138 l 416 138 l 416 277 l 555 277 l 555 972 l 833 972 l 833 277 l 694 277 l 694 138 l 555 138 l 555 0 l 277 0 l 277 138 l 138 138 l 138 277 l 0 277 l 0 972 "},"h":{"x_min":0,"x_max":694.5,"ha":833,"o":"m 0 972 l 277 972 l 277 694 l 555 694 l 555 555 l 694 555 l 694 0 l 555 0 l 555 555 l 277 555 l 277 0 l 0 0 l 0 972 "},"0":{"x_min":0,"x_max":833.40625,"ha":972,"o":"m 0 833 l 138 833 l 138 972 l 694 972 l 694 833 l 833 833 l 833 138 l 694 138 l 694 0 l 138 0 l 138 138 l 0 138 l 0 833 m 694 555 l 555 555 l 555 416 l 416 416 l 416 277 l 277 277 l 277 138 l 694 138 l 694 555 m 277 833 l 277 416 l 416 416 l 416 555 l 555 555 l 555 694 l 694 694 l 693 833 l 277 833 "},".":{"x_min":0,"x_max":138.90625,"ha":278,"o":"m 0 138 l 138 138 l 138 0 l 0 0 l 0 138 "},"”":{"x_min":0,"x_max":694.5,"ha":833,"o":"m 0 972 l 277 972 l 277 555 l 138 555 l 138 416 l 0 416 l 0 555 l 138 555 l 138 833 l 0 833 l 0 972 m 416 972 l 694 972 l 694 555 l 555 555 l 555 416 l 416 416 l 416 555 l 555 555 l 555 833 l 416 833 l 416 972 "},"@":{"x_min":0,"x_max":833.40625,"ha":972,"o":"m 0 833 l 138 833 l 138 972 l 694 972 l 694 833 l 833 833 l 833 277 l 416 277 l 416 694 l 555 694 l 555 416 l 694 416 l 694 833 l 277 833 l 277 138 l 833 138 l 833 0 l 138 0 l 138 138 l 0 138 l 0 833 "},"f":{"x_min":0,"x_max":694.5,"ha":833,"o":"m 0 694 l 138 694 l 138 833 l 277 833 l 277 972 l 694 972 l 694 833 l 416 833 l 416 694 l 694 694 l 694 555 l 416 555 l 416 0 l 138 0 l 138 555 l 0 555 l 0 694 "},";":{"x_min":0,"x_max":277.796875,"ha":417,"o":"m 0 277 l 277 277 l 277 -138 l 138 -138 l 138 -277 l 0 -277 l 0 -138 l 138 -138 l 138 138 l 0 138 l 0 277 m 0 694 l 138 694 l 138 555 l 0 555 l 0 694 "},"“":{"x_min":0,"x_max":694.5,"ha":833,"o":"m 0 1250 l 138 1250 l 138 1389 l 277 1389 l 277 1250 l 138 1250 l 138 972 l 277 972 l 277 833 l 0 833 l 0 1250 m 416 1250 l 555 1250 l 555 1389 l 694 1389 l 694 1250 l 555 1250 l 555 972 l 694 972 l 694 833 l 416 833 l 416 1250 "},"i":{"x_min":0,"x_max":555.59375,"ha":695,"o":"m 0 694 l 416 694 l 416 138 l 555 138 l 555 0 l 0 0 l 0 138 l 138 138 l 138 555 l 0 555 l 0 694 m 138 972 l 416 972 l 416 833 l 138 833 l 138 972 "},"6":{"x_min":0,"x_max":833.40625,"ha":972,"o":"m 0 833 l 138 833 l 138 972 l 694 972 l 694 833 l 833 833 l 833 694 l 694 694 l 694 833 l 277 833 l 277 555 l 694 555 l 694 416 l 833 416 l 833 138 l 694 138 l 694 0 l 138 0 l 138 138 l 0 138 l 0 833 m 277 138 l 694 138 l 694 416 l 277 416 l 277 138 "},"A":{"x_min":0,"x_max":833.40625,"ha":972,"o":"m 0 833 l 138 833 l 138 972 l 833 972 l 833 0 l 555 0 l 555 416 l 138 416 l 138 0 l 0 0 l 0 833 m 138 555 l 555 555 l 555 833 l 138 833 l 138 555 "},"‘":{"x_min":0,"x_max":277.796875,"ha":417,"o":"m 0 1250 l 138 1250 l 138 1389 l 277 1389 l 277 1250 l 138 1250 l 138 972 l 277 972 l 277 833 l 0 833 l 0 1250 "},"n":{"x_min":0,"x_max":694.5,"ha":833,"o":"m 0 694 l 555 694 l 555 555 l 694 555 l 694 0 l 555 0 l 555 555 l 277 555 l 277 0 l 0 0 l 0 694 "},"O":{"x_min":0,"x_max":833.40625,"ha":972,"o":"m 0 833 l 138 833 l 138 972 l 694 972 l 694 833 l 833 833 l 833 138 l 694 138 l 694 0 l 138 0 l 138 138 l 0 138 l 0 833 m 138 138 l 555 138 l 555 833 l 138 833 l 138 138 "},"3":{"x_min":0,"x_max":833.40625,"ha":972,"o":"m 277 555 l 555 555 l 555 833 l 138 833 l 138 694 l 0 694 l 0 833 l 138 833 l 138 972 l 694 972 l 694 833 l 833 833 l 833 555 l 694 555 l 694 416 l 833 416 l 833 138 l 694 138 l 694 0 l 138 0 l 138 138 l 0 138 l 0 277 l 138 277 l 138 138 l 555 138 l 555 416 l 277 416 l 277 555 "},"]":{"x_min":0,"x_max":555.59375,"ha":695,"o":"m 0 972 l 555 972 l 555 0 l 0 0 l 0 138 l 277 138 l 277 833 l 0 833 l 0 972 "},"m":{"x_min":0,"x_max":833.40625,"ha":972,"o":"m 0 694 l 416 694 l 416 555 l 555 555 l 555 694 l 694 694 l 694 555 l 833 555 l 833 0 l 694 0 l 694 555 l 555 555 l 555 0 l 416 0 l 416 555 l 277 555 l 277 0 l 0 0 l 0 694 "},"9":{"x_min":0,"x_max":833.40625,"ha":972,"o":"m 0 833 l 138 833 l 138 972 l 694 972 l 694 833 l 833 833 l 833 138 l 694 138 l 694 0 l 138 0 l 138 138 l 0 138 l 0 277 l 138 277 l 138 138 l 555 138 l 555 416 l 138 416 l 138 555 l 0 555 l 0 833 m 138 555 l 555 555 l 555 833 l 138 833 l 138 555 "},"l":{"x_min":0,"x_max":555.59375,"ha":695,"o":"m 0 972 l 416 972 l 416 138 l 555 138 l 555 0 l 138 0 l 138 833 l 0 833 l 0 972 "},"8":{"x_min":0,"x_max":833.40625,"ha":972,"o":"m 0 833 l 138 833 l 138 972 l 694 972 l 694 833 l 833 833 l 833 555 l 694 555 l 694 416 l 833 416 l 833 138 l 694 138 l 694 0 l 138 0 l 138 138 l 0 138 l 0 416 l 138 416 l 138 555 l 0 555 l 0 833 m 138 138 l 555 138 l 555 416 l 138 416 l 138 138 m 138 555 l 555 555 l 555 833 l 138 833 l 138 555 "},"p":{"x_min":0,"x_max":694.5,"ha":833,"o":"m 0 694 l 555 694 l 555 555 l 694 555 l 694 138 l 555 138 l 555 0 l 277 0 l 277 -277 l 0 -277 l 0 694 m 277 138 l 555 138 l 555 555 l 277 555 l 277 138 "},"4":{"x_min":0,"x_max":833.40625,"ha":972,"o":"m 0 555 l 138 555 l 138 694 l 277 694 l 277 833 l 416 833 l 416 972 l 833 972 l 833 0 l 555 0 l 555 277 l 0 277 l 0 555 m 555 833 l 416 833 l 416 694 l 277 694 l 277 555 l 138 555 l 138 416 l 555 416 l 555 833 "},"‡":{"x_min":0,"x_max":555.59375,"ha":695,"o":"m 0 694 l 138 694 l 138 972 l 416 972 l 416 694 l 555 694 l 555 555 l 416 555 l 416 416 l 555 416 l 555 277 l 416 277 l 416 0 l 138 0 l 138 277 l 0 277 l 0 416 l 138 416 l 138 555 l 0 555 l 0 694 "},"R":{"x_min":0,"x_max":833.40625,"ha":972,"o":"m 0 972 l 694 972 l 694 833 l 833 833 l 833 416 l 694 416 l 694 138 l 833 138 l 833 0 l 694 0 l 694 138 l 555 138 l 555 277 l 277 277 l 277 0 l 0 0 l 0 972 m 694 833 l 277 833 l 277 416 l 694 416 l 694 833 "},"o":{"x_min":0,"x_max":694.5,"ha":833,"o":"m 0 555 l 138 555 l 138 694 l 555 694 l 555 555 l 694 555 l 694 138 l 555 138 l 555 0 l 138 0 l 138 138 l 0 138 l 0 555 m 277 138 l 555 138 l 555 555 l 277 555 l 277 138 "},"5":{"x_min":0,"x_max":833.40625,"ha":972,"o":"m 0 972 l 833 972 l 833 833 l 277 833 l 277 694 l 694 694 l 694 555 l 833 555 l 833 138 l 694 138 l 694 0 l 138 0 l 138 138 l 0 138 l 0 277 l 138 277 l 138 138 l 555 138 l 555 555 l 0 555 l 0 972 "}}}
